<?xml version="1.0" ?><svg data-name="Layer 45" id="Layer_45" viewBox="0 0 50 50" xmlns="http://www.w3.org/2000/svg"><defs><style>.cls-1{fill:#010101;}</style></defs><title/><path class="cls-1" d="M46,12H38.2L35.8,7.1A2,2,0,0,0,34,6H15.8A2,2,0,0,0,14,7.1L11.7,12H4a2,2,0,0,0-2,2V42a2,2,0,0,0,2,2H46a2,2,0,0,0,2-2V14A2,2,0,0,0,46,12ZM44,40H6V16h7a2,2,0,0,0,1.8-1.1L17.1,10H32.8l2.4,4.9A2,2,0,0,0,37,16h7V40Z"/><path class="cls-1" d="M25,17A10,10,0,1,0,35,27,10,10,0,0,0,25,17Zm0,16a6,6,0,1,1,6-6A6,6,0,0,1,25,33Z"/><circle class="cls-1" cx="39" cy="21" r="2"/></svg>