<?xml version="1.0" standalone="no"?>
<!DOCTYPE svg PUBLIC "-//W3C//DTD SVG 20010904//EN"
 "http://www.w3.org/TR/2001/REC-SVG-20010904/DTD/svg10.dtd">
<svg version="1.0" xmlns="http://www.w3.org/2000/svg"
 width="4096.000000pt" height="4096.000000pt" viewBox="0 0 4096.000000 4096.000000"
 preserveAspectRatio="xMidYMid meet">

<g transform="translate(0.000000,4096.000000) scale(0.100000,-0.100000)"
fill="#000000" stroke="none">
<path d="M19810 40950 c-2578 -90 -5030 -632 -7365 -1627 -712 -304 -1519
-707 -2195 -1098 -1968 -1136 -3743 -2602 -5243 -4329 -1857 -2138 -3260
-4658 -4094 -7351 -1312 -4244 -1207 -8854 299 -13020 407 -1125 925 -2241
1523 -3275 1631 -2825 3949 -5255 6690 -7012 946 -607 1969 -1150 2980 -1583
2979 -1276 6166 -1820 9440 -1610 2910 187 5775 1011 8352 2403 3200 1729
5884 4277 7785 7392 468 768 938 1674 1296 2500 893 2064 1438 4253 1616 6495
270 3389 -297 6777 -1651 9865 -288 656 -660 1391 -1018 2010 -1153 1998
-2653 3804 -4411 5314 -1695 1456 -3622 2629 -5688 3461 -1733 697 -3527 1147
-5411 1354 -379 42 -846 78 -1310 101 -279 14 -1299 20 -1595 10z m9270
-12335 c189 -28 395 -107 539 -204 119 -81 245 -268 291 -431 59 -213 86 -693
56 -1010 -187 -1990 -895 -6641 -1787 -11740 -193 -1106 -465 -2610 -540
-2990 -228 -1157 -645 -1840 -1219 -1999 -108 -30 -282 -45 -450 -38 -489 20
-969 201 -1582 594 -175 112 -345 229 -773 533 -176 125 -513 356 -750 513
-639 424 -1560 1044 -2265 1524 -344 235 -1005 680 -1470 991 -465 311 -888
597 -940 635 -241 177 -478 403 -599 573 -217 303 -259 610 -127 924 91 215
267 447 582 767 368 373 933 921 1364 1324 2776 2588 3257 3045 4135 3923 601
601 861 884 954 1039 46 75 37 240 -17 340 -50 93 -137 139 -262 140 -105 1
-204 -20 -283 -60 -371 -185 -3233 -2077 -7562 -4997 -1384 -933 -1416 -954
-1767 -1127 -357 -176 -673 -282 -1014 -341 -112 -19 -165 -22 -399 -23 -244
0 -288 3 -458 28 -658 97 -1527 319 -2652 677 -170 54 -482 153 -691 219 -600
191 -856 286 -1094 407 -174 88 -271 155 -370 254 -158 158 -218 342 -176 541
49 228 274 459 681 700 123 73 428 223 610 300 150 63 666 287 3220 1396 5538
2405 7846 3391 10470 4473 3821 1575 5134 2054 5885 2145 144 18 346 18 460 0z"/>
</g>
</svg>
